#N canvas 390 114 984 637 10;
#X declare -path .;
#X declare -path rj;
#X declare -path percsamples;
#X declare -path .;
#X declare -path rj;
#X declare -path .;
#X declare -path rj;
#X declare -path .;
#X declare -path rj;
#X declare -path .;
#X declare -path rj;
#X declare -path cpmlibs;
#X declare -path fieldrecordings;
#X obj 30 16 declare -path .;
#X obj 30 43 declare -path rj;
#X obj 35 79 r touch;
#X obj 704 194 r tapdistance;
#X obj 704 215 t b f;
#X msg 706 53 0;
#X msg 708 82 0.1;
#X msg 706 108 0.5;
#X msg 705 132 1;
#X msg 705 156 1.1;
#X obj 775 94 s tapdistance;
#X obj 703 235 * 0.3;
#X obj 703 255 + 0.7;
#N canvas 745 68 865 753 snowresponder 0;
#X obj 62 60 inlet;
#X obj 359 50 inlet;
#X obj 569 52 inlet;
#X text 358 32 touchMoved;
#X text 568 35 touchEnded;
#X text 59 41 touchBegan;
#X obj 321 502 outlet~;
#X obj 397 502 outlet~;
#X obj 227 65 t b;
#N canvas 0 22 450 300 vol_scaler 0;
#X obj 40 20 inlet~;
#X obj 167 25 inlet~;
#X obj 34 255 outlet~;
#X obj 177 252 outlet~;
#X obj 45 118 *~;
#X obj 168 116 *~;
#X obj 255 27 inlet;
#X obj 266 244 outlet;
#X obj 283 79 loadbang;
#X msg 282 122 1;
#X connect 0 0 4 0;
#X connect 1 0 5 0;
#X connect 4 0 2 0;
#X connect 5 0 3 0;
#X connect 6 0 5 1;
#X connect 6 0 4 1;
#X connect 6 0 7 0;
#X connect 8 0 9 0;
#X connect 9 0 5 1;
#X connect 9 0 4 1;
#X restore 406 238 pd vol_scaler;
#X msg 266 112 0;
#X obj 52 280 list prepend playdiv;
#X obj 51 216 bng 15 250 50 0 empty empty empty 17 7 0 10 -262144 -1
-1;
#N canvas 227 330 516 558 env_perc 0;
#X obj 198 412 outlet~;
#X obj 13 16 inlet;
#X obj 196 327 / 127;
#X obj 196 366 t a a;
#X obj 157 260 * 127;
#X msg 116 280 60;
#X obj 116 301 makenote 60 200;
#X obj 349 21 inlet;
#X text 340 43 volume (0-1);
#X text 59 15 trigger - start envelope;
#X msg 16 102 1;
#X obj 31 124 *;
#X obj 57 106 loadbang;
#X msg 57 125 1;
#X text 6 53 handle the volume scaling.;
#X text 249 287 setup a midi note (on then off);
#X text 325 355 calculate and send the env;
#X text 41 515 percussive envelope generator - cpm 2012;
#X obj 448 23 inlet;
#X text 214 222 calculate a changing length;
#X obj 16 80 t b b;
#X obj 117 209 t b a b;
#X obj 198 272 + 50;
#X obj 199 248 random 200;
#X obj 198 389 c_adsr 1 20 200 100 400;
#X connect 1 0 20 0;
#X connect 2 0 3 0;
#X connect 3 0 24 0;
#X connect 3 1 24 1;
#X connect 4 0 6 1;
#X connect 5 0 6 0;
#X connect 6 1 2 0;
#X connect 7 0 11 1;
#X connect 10 0 11 0;
#X connect 11 0 21 0;
#X connect 12 0 13 0;
#X connect 13 0 11 1;
#X connect 18 0 22 1;
#X connect 20 0 10 0;
#X connect 21 0 5 0;
#X connect 21 1 4 0;
#X connect 21 2 23 0;
#X connect 22 0 6 2;
#X connect 23 0 22 0;
#X connect 24 0 0 0;
#X restore 230 321 pd env_perc;
#N canvas 0 22 450 300 vol_scaler_ar 0;
#X obj 40 20 inlet~;
#X obj 167 25 inlet~;
#X obj 34 255 outlet~;
#X obj 177 252 outlet~;
#X obj 45 118 *~;
#X obj 168 116 *~;
#X obj 283 79 loadbang;
#X msg 282 122 1;
#X obj 255 27 inlet~;
#X obj 266 244 outlet~;
#X connect 0 0 4 0;
#X connect 1 0 5 0;
#X connect 4 0 2 0;
#X connect 5 0 3 0;
#X connect 6 0 7 0;
#X connect 7 0 5 1;
#X connect 7 0 4 1;
#X connect 8 0 5 1;
#X connect 8 0 4 1;
#X connect 8 0 9 0;
#X restore 137 359 pd vol_scaler_ar;
#X obj 637 76 bng 15 250 50 0 empty empty empty 17 7 0 10 -262144 -1
-1;
#X obj 365 142 line;
#X obj 365 122 list append 100;
#X msg 206 112 loop 1;
#X msg 569 98 stop;
#X obj 406 202 s_looper \$0-snowk snow-crushing-1.wav;
#X obj 51 192 t b a;
#X obj 52 258 list prepend 100;
#X obj 52 300 s_looper \$0-snowStep snowsteps-short-mono.wav;
#X msg 127 523 sr 44100;
#X obj 142 474 loadbang;
#X obj 52 237 random 100;
#X obj 360 72 * 0.07;
#X obj 362 96 + 0.1;
#X connect 0 0 8 0;
#X connect 0 0 10 0;
#X connect 0 0 21 0;
#X connect 1 0 27 0;
#X connect 2 0 19 0;
#X connect 2 0 15 0;
#X connect 8 0 18 0;
#X connect 9 0 6 0;
#X connect 9 1 7 0;
#X connect 10 0 9 2;
#X connect 11 0 23 0;
#X connect 12 0 26 0;
#X connect 13 0 14 2;
#X connect 14 0 6 0;
#X connect 14 1 7 0;
#X connect 16 0 9 2;
#X connect 17 0 16 0;
#X connect 18 0 20 0;
#X connect 19 0 20 0;
#X connect 20 0 9 0;
#X connect 20 0 9 1;
#X connect 21 0 12 0;
#X connect 21 1 13 1;
#X connect 22 0 11 0;
#X connect 23 0 14 0;
#X connect 23 0 14 1;
#X connect 23 2 13 0;
#X connect 24 0 23 0;
#X connect 25 0 24 0;
#X connect 26 0 22 0;
#X connect 27 0 28 0;
#X connect 28 0 17 0;
#X restore 703 278 pd snowresponder;
#X obj 796 256 r touchended;
#X obj 749 235 r touchvelocity;
#N canvas 727 49 477 425 clustermetro 0;
#X obj 303 241 bng 15 250 50 0 empty empty empty 17 7 0 10 -262144
-1 -1;
#X obj 247 264 + 1;
#X obj 211 109 t b b b b;
#X obj 201 15 bng 15 250 50 0 empty empty empty 17 7 0 10 -262144 -1
-1;
#X floatatom 256 287 5 0 0 0 - - -;
#X obj 247 244 random 6;
#X obj 67 123 delay 1000;
#X obj 66 97 random 8000;
#X obj 192 324 c_multimetro 16 200;
#X obj 192 298 tgl 15 0 empty empty empty 17 7 0 10 -262144 -1 -1 1
1;
#X obj 91 319 delay 10;
#X msg 149 325 stop;
#X floatatom 89 252 5 0 0 0 - - -;
#X obj 89 276 sel 15;
#X obj 83 299 bng 15 250 50 0 empty empty empty 17 7 0 10 -262144 -1
-1;
#X obj 102 297 t b;
#X msg 192 277 1;
#X obj 223 13 loadbang;
#X obj 192 346 outlet;
#X obj 157 14 inlet;
#N canvas 1012 38 445 814 createclusterrhythm 0;
#X obj 78 50 inlet;
#X obj 52 778 outlet;
#X obj 167 167 random 1000;
#X obj 167 187 + 50;
#X obj 68 140 t b b b b b b b b;
#X obj 148 211 random 1000;
#X obj 148 231 + 50;
#X obj 143 257 random 1000;
#X obj 143 277 + 50;
#X obj 122 296 random 1000;
#X obj 122 316 + 50;
#X obj 113 338 random 1000;
#X obj 113 358 + 50;
#X obj 104 382 random 1000;
#X obj 104 402 + 50;
#X obj 94 424 random 1000;
#X obj 94 444 + 50;
#X obj 93 478 list append;
#X obj 92 500 list append;
#X obj 95 522 list append;
#X obj 96 544 list append;
#X obj 94 567 list append;
#X obj 95 592 list append;
#X connect 0 0 4 0;
#X connect 2 0 3 0;
#X connect 3 0 22 1;
#X connect 4 1 15 0;
#X connect 4 2 13 0;
#X connect 4 3 11 0;
#X connect 4 4 9 0;
#X connect 4 5 7 0;
#X connect 4 6 5 0;
#X connect 4 7 2 0;
#X connect 5 0 6 0;
#X connect 6 0 21 1;
#X connect 7 0 8 0;
#X connect 8 0 20 1;
#X connect 9 0 10 0;
#X connect 10 0 19 1;
#X connect 11 0 12 0;
#X connect 12 0 18 1;
#X connect 13 0 14 0;
#X connect 14 0 17 1;
#X connect 15 0 16 0;
#X connect 16 0 17 0;
#X connect 17 0 18 0;
#X connect 18 0 19 0;
#X connect 19 0 20 0;
#X connect 20 0 21 0;
#X connect 21 0 22 0;
#X connect 22 0 1 0;
#X restore 303 262 pd createclusterrhythm;
#X obj 348 352 print rhythm:;
#X obj 46 124 bng 15 250 50 0 empty empty empty 17 7 0 10 -262144 -1
-1;
#X obj 345 321 spigot;
#X obj 374 293 tgl 15 0 empty empty empty 17 7 0 10 -262144 -1 -1 0
1;
#X connect 0 0 20 0;
#X connect 1 0 8 1;
#X connect 1 0 4 0;
#X connect 2 0 7 0;
#X connect 2 1 16 0;
#X connect 2 2 5 0;
#X connect 2 3 0 0;
#X connect 3 0 2 0;
#X connect 5 0 1 0;
#X connect 5 0 13 1;
#X connect 6 0 2 0;
#X connect 6 0 22 0;
#X connect 7 0 6 1;
#X connect 8 0 12 0;
#X connect 8 0 18 0;
#X connect 9 0 8 0;
#X connect 10 0 11 0;
#X connect 10 0 6 0;
#X connect 11 0 8 0;
#X connect 12 0 13 0;
#X connect 13 0 14 0;
#X connect 13 0 15 0;
#X connect 15 0 10 0;
#X connect 16 0 9 0;
#X connect 17 0 2 0;
#X connect 19 0 2 0;
#X connect 20 0 8 2;
#X connect 20 0 23 0;
#X connect 23 0 21 0;
#X connect 24 0 23 1;
#X restore 132 193 pd clustermetro;
#X obj 112 194 bng 15 250 50 0 empty empty empty 17 7 0 10 -262144
-1 -1;
#N canvas 326 601 450 300 sel01 0;
#X obj 122 3 inlet;
#X obj 247 31 sel 0;
#X msg 225 58 0;
#X msg 275 57 1;
#X obj 49 133 spigot;
#X obj 240 5 inlet;
#X obj 47 203 outlet;
#X obj 165 105 tgl 15 0 empty empty empty 17 7 0 10 -262144 -1 -1 0
1;
#X connect 0 0 4 0;
#X connect 1 0 2 0;
#X connect 1 1 3 0;
#X connect 2 0 7 0;
#X connect 3 0 7 0;
#X connect 4 0 6 0;
#X connect 5 0 1 0;
#X connect 7 0 4 1;
#X coords 0 -1 1 1 85 25 1 100 100;
#X restore 155 217 pd sel01;
#N canvas 658 139 671 572 cymbals 0;
#X obj 107 34 inlet;
#X obj 194 45 inlet;
#X obj 154 552 outlet~;
#X obj 204 551 outlet~;
#X obj 116 203 bng 15 250 50 0 empty empty empty 17 7 0 10 -262144
-1 -1;
#X floatatom 193 67 5 0 0 0 - - -;
#X obj 116 268 list prepend playdiv;
#X obj 107 54 t b;
#X text 107 13 note;
#X text 184 14 note length;
#X text 532 377 volume;
#X obj 535 394 inlet;
#X obj 168 497 g_vol2;
#X obj 256 29 loadbang;
#X msg 256 49 0;
#X obj 536 423 / 100;
#X obj 120 338 *~;
#N canvas 227 330 516 558 env_perc_long 0;
#X obj 198 434 outlet~;
#X obj 13 16 inlet;
#X obj 196 327 / 127;
#X obj 196 366 t a a;
#X obj 157 260 * 127;
#X obj 117 259 t b a;
#X msg 116 280 60;
#X obj 349 21 inlet;
#X text 340 43 volume (0-1);
#X text 59 15 trigger - start envelope;
#X msg 118 153 1;
#X obj 118 131 t b;
#X obj 133 175 *;
#X obj 159 157 loadbang;
#X msg 159 176 1;
#X text 226 160 handle the volume scaling.;
#X text 249 287 setup a midi note (on then off);
#X text 325 355 calculate and send the env;
#X text 41 515 percussive envelope generator - cpm 2012;
#X obj 120 299 makenote 60 2000;
#X obj 435 20 inlet;
#X text 434 44 duration;
#X obj 198 411 c_adsr 1 300 2000 0 2000;
#X text 76 39 handle negative input to close env;
#X connect 1 0 11 0;
#X connect 2 0 3 0;
#X connect 3 0 22 0;
#X connect 3 1 22 1;
#X connect 4 0 19 1;
#X connect 5 0 6 0;
#X connect 5 1 4 0;
#X connect 6 0 19 0;
#X connect 7 0 12 1;
#X connect 10 0 12 0;
#X connect 11 0 10 0;
#X connect 12 0 5 0;
#X connect 13 0 14 0;
#X connect 14 0 12 1;
#X connect 19 1 2 0;
#X connect 20 0 19 2;
#X connect 20 0 22 3;
#X connect 22 0 0 0;
#X restore 237 364 pd env_perc_long;
#X obj 305 174 unpack s f;
#X floatatom 342 205 10 0 0 0 - - -;
#X obj 116 315 s_looper \$0-cymballong cymballong.wav;
#X msg 257 291 info;
#X floatatom 394 261 5 0 0 0 - - -;
#X msg 252 207 fade 10;
#X obj 407 322 loadbang;
#X obj 154 396 volumeRandomise;
#X obj 475 380 loadbang;
#X msg 367 345 1000;
#X obj 116 289 list append 1;
#X floatatom 377 410 5 0 0 0 - - -;
#X obj 116 222 random 15;
#X obj 116 247 list prepend 15;
#X obj 392 235 / 15;
#X obj 392 294 - 300;
#X obj 151 421 e_pan;
#X floatatom 189 420 5 0 0 0 - - -;
#X obj 256 270 loadbang;
#X obj 481 473 * 1;
#X msg 475 402 97;
#X connect 0 0 7 0;
#X connect 1 0 5 0;
#X connect 4 0 30 0;
#X connect 6 0 28 0;
#X connect 7 0 4 0;
#X connect 11 0 15 0;
#X connect 12 0 2 0;
#X connect 12 1 3 0;
#X connect 13 0 14 0;
#X connect 14 0 5 0;
#X connect 15 0 37 0;
#X connect 16 0 34 0;
#X connect 17 0 16 1;
#X connect 18 1 19 0;
#X connect 18 1 32 0;
#X connect 20 0 16 0;
#X connect 20 2 17 0;
#X connect 20 3 18 0;
#X connect 21 0 20 0;
#X connect 22 0 33 0;
#X connect 23 0 20 0;
#X connect 24 0 27 0;
#X connect 25 0 34 1;
#X connect 25 0 35 0;
#X connect 26 0 38 0;
#X connect 27 0 17 2;
#X connect 28 0 20 0;
#X connect 30 0 31 0;
#X connect 31 0 6 0;
#X connect 32 0 22 0;
#X connect 33 0 17 2;
#X connect 33 0 29 0;
#X connect 34 0 12 0;
#X connect 34 1 12 1;
#X connect 36 0 21 0;
#X connect 37 0 12 2;
#X connect 38 0 37 0;
#X restore 289 246 pd cymbals;
#N canvas 727 49 477 425 clustermetro 0;
#X obj 303 241 bng 15 250 50 0 empty empty empty 17 7 0 10 -262144
-1 -1;
#X obj 247 264 + 1;
#X obj 211 109 t b b b b;
#X obj 201 15 bng 15 250 50 0 empty empty empty 17 7 0 10 -262144 -1
-1;
#X floatatom 256 287 5 0 0 0 - - -;
#X obj 247 244 random 6;
#X obj 67 123 delay 1000;
#X obj 192 324 c_multimetro 16 200;
#X obj 192 298 tgl 15 0 empty empty empty 17 7 0 10 -262144 -1 -1 1
1;
#X obj 91 319 delay 10;
#X msg 149 325 stop;
#X floatatom 89 252 5 0 0 0 - - -;
#X obj 89 276 sel 15;
#X obj 83 299 bng 15 250 50 0 empty empty empty 17 7 0 10 -262144 -1
-1;
#X obj 102 297 t b;
#X msg 192 277 1;
#X obj 223 13 loadbang;
#X obj 192 346 outlet;
#X obj 157 14 inlet;
#N canvas 1012 38 445 814 createclusterrhythm 0;
#X obj 78 50 inlet;
#X obj 52 778 outlet;
#X obj 68 140 t b b b b b b b b;
#X obj 93 478 list append;
#X obj 92 500 list append;
#X obj 95 522 list append;
#X obj 96 544 list append;
#X obj 94 567 list append;
#X obj 95 592 list append;
#X obj 167 187 + 200;
#X obj 148 231 + 200;
#X obj 143 277 + 200;
#X obj 122 316 + 200;
#X obj 113 358 + 200;
#X obj 104 402 + 200;
#X obj 94 444 + 200;
#X obj 167 167 random 4000;
#X obj 148 211 random 4000;
#X obj 143 257 random 4000;
#X obj 122 296 random 4000;
#X obj 113 338 random 4000;
#X obj 104 382 random 4000;
#X obj 94 424 random 4000;
#X connect 0 0 2 0;
#X connect 2 1 22 0;
#X connect 2 2 21 0;
#X connect 2 3 20 0;
#X connect 2 4 19 0;
#X connect 2 5 18 0;
#X connect 2 6 17 0;
#X connect 2 7 16 0;
#X connect 3 0 4 0;
#X connect 4 0 5 0;
#X connect 5 0 6 0;
#X connect 6 0 7 0;
#X connect 7 0 8 0;
#X connect 8 0 1 0;
#X connect 9 0 8 1;
#X connect 10 0 7 1;
#X connect 11 0 6 1;
#X connect 12 0 5 1;
#X connect 13 0 4 1;
#X connect 14 0 3 1;
#X connect 15 0 3 0;
#X connect 16 0 9 0;
#X connect 17 0 10 0;
#X connect 18 0 11 0;
#X connect 19 0 12 0;
#X connect 20 0 13 0;
#X connect 21 0 14 0;
#X connect 22 0 15 0;
#X restore 303 262 pd createclusterrhythm;
#X obj 348 352 print rhythm:;
#X obj 46 124 bng 15 250 50 0 empty empty empty 17 7 0 10 -262144 -1
-1;
#X obj 345 321 spigot;
#X obj 374 293 tgl 15 0 empty empty empty 17 7 0 10 -262144 -1 -1 0
1;
#X text 40 73 timer for calculating new cycle;
#X text 329 235 creates the rhythm;
#X obj 66 97 random 20000;
#X connect 0 0 19 0;
#X connect 1 0 7 1;
#X connect 1 0 4 0;
#X connect 2 0 26 0;
#X connect 2 1 15 0;
#X connect 2 2 5 0;
#X connect 2 3 0 0;
#X connect 3 0 2 0;
#X connect 5 0 1 0;
#X connect 5 0 12 1;
#X connect 6 0 2 0;
#X connect 6 0 21 0;
#X connect 7 0 11 0;
#X connect 7 0 17 0;
#X connect 8 0 7 0;
#X connect 9 0 10 0;
#X connect 9 0 6 0;
#X connect 10 0 7 0;
#X connect 11 0 12 0;
#X connect 12 0 13 0;
#X connect 12 0 14 0;
#X connect 14 0 9 0;
#X connect 15 0 8 0;
#X connect 16 0 2 0;
#X connect 18 0 2 0;
#X connect 19 0 7 2;
#X connect 19 0 22 0;
#X connect 22 0 20 0;
#X connect 23 0 22 1;
#X connect 26 0 6 1;
#X restore 306 193 pd clustermetro;
#X obj 285 195 bng 15 250 50 0 empty empty empty 17 7 0 10 -262144
-1 -1;
#N canvas 326 601 450 300 sel01 0;
#X obj 122 3 inlet;
#X obj 247 31 sel 0;
#X msg 225 58 0;
#X msg 275 57 1;
#X obj 49 133 spigot;
#X obj 240 5 inlet;
#X obj 47 203 outlet;
#X obj 165 105 tgl 15 0 empty empty empty 17 7 0 10 -262144 -1 -1 0
1;
#X connect 0 0 4 0;
#X connect 1 0 2 0;
#X connect 1 1 3 0;
#X connect 2 0 7 0;
#X connect 3 0 7 0;
#X connect 4 0 6 0;
#X connect 5 0 1 0;
#X connect 7 0 4 1;
#X coords 0 -1 1 1 85 25 1 100 100;
#X restore 304 216 pd sel01;
#X obj 158 15 declare -path percsamples;
#N canvas 108 32 450 300 loadsounds 1;
#X obj -197 58 soundfiler;
#X obj -197 5 loadbang;
#X msg -197 32 read -resize almglockenC.wav 0-alm;
#X obj -198 86 table 0-alm;
#X obj -15 144 loadbang;
#X obj -18 188 soundfiler;
#X msg -16 166 read -resize cymbalNote.wav 0-cym;
#X connect 1 0 2 0;
#X connect 2 0 0 0;
#X connect 4 0 6 0;
#X connect 6 0 5 0;
#X restore 325 15 pd loadsounds;
#N canvas 19 201 915 715 clusters2 1;
#N canvas 1002 481 501 471 makebelnote 0;
#X obj 21 15 inlet;
#X obj 85 442 outlet;
#X obj 85 414 pack f f;
#X floatatom 55 229 5 0 0 0 - - -;
#X obj 54 162 bng 15 250 50 0 empty empty empty 17 7 0 10 -262144 -1
-1;
#X obj 54 184 random 7;
#X text 78 246 note;
#X obj 59 267 m_mixolydian 48;
#X obj 196 240 / 100;
#X obj 196 197 random 15;
#X obj 196 219 + 85;
#X obj 196 262 * 127;
#X obj 143 122 t b b;
#X obj 55 208 tabread \$0-cluster2;
#X connect 0 0 12 0;
#X connect 2 0 1 0;
#X connect 3 0 7 0;
#X connect 4 0 5 0;
#X connect 5 0 13 0;
#X connect 7 0 2 0;
#X connect 8 0 11 0;
#X connect 9 0 10 0;
#X connect 10 0 8 0;
#X connect 11 0 2 1;
#X connect 12 0 5 0;
#X connect 12 1 9 0;
#X connect 13 0 3 0;
#X restore 81 226 pd makebelnote;
#X obj 120 180 bng 15 250 50 0 empty empty empty 17 7 0 10 -262144
-1 -1;
#X obj 84 263 bellsynth;
#X obj 266 451 outlet~;
#X obj 318 450 outlet~;
#X obj 266 394 g_vol2;
#X obj 284 30 inlet;
#X text 262 11 note input;
#N canvas 1002 481 501 471 makebelnote 0;
#X obj 21 15 inlet;
#X obj 85 442 outlet;
#X obj 85 414 pack f f;
#X floatatom 55 229 5 0 0 0 - - -;
#X obj 54 162 bng 15 250 50 0 empty empty empty 17 7 0 10 -262144 -1
-1;
#X obj 54 184 random 7;
#X text 78 246 note;
#X obj 59 267 m_mixolydian 48;
#X obj 196 240 / 100;
#X obj 196 197 random 15;
#X obj 196 219 + 85;
#X obj 196 262 * 127;
#X obj 143 122 t b b;
#X obj 55 208 tabread \$0-cluster2;
#X connect 0 0 12 0;
#X connect 2 0 1 0;
#X connect 3 0 7 0;
#X connect 4 0 5 0;
#X connect 5 0 13 0;
#X connect 7 0 2 0;
#X connect 8 0 11 0;
#X connect 9 0 10 0;
#X connect 10 0 8 0;
#X connect 11 0 2 1;
#X connect 12 0 5 0;
#X connect 12 1 9 0;
#X connect 13 0 3 0;
#X restore 225 222 pd makebelnote;
#X obj 264 176 bng 15 250 50 0 empty empty empty 17 7 0 10 -262144
-1 -1;
#N canvas 1002 481 501 471 makebelnote 0;
#X obj 21 15 inlet;
#X obj 85 442 outlet;
#X obj 85 414 pack f f;
#X floatatom 55 229 5 0 0 0 - - -;
#X obj 54 162 bng 15 250 50 0 empty empty empty 17 7 0 10 -262144 -1
-1;
#X obj 54 184 random 7;
#X text 78 246 note;
#X obj 59 267 m_mixolydian 48;
#X obj 196 240 / 100;
#X obj 196 197 random 15;
#X obj 196 219 + 85;
#X obj 196 262 * 127;
#X obj 143 122 t b b;
#X obj 55 208 tabread \$0-cluster2;
#X connect 0 0 12 0;
#X connect 2 0 1 0;
#X connect 3 0 7 0;
#X connect 4 0 5 0;
#X connect 5 0 13 0;
#X connect 7 0 2 0;
#X connect 8 0 11 0;
#X connect 9 0 10 0;
#X connect 10 0 8 0;
#X connect 11 0 2 1;
#X connect 12 0 5 0;
#X connect 12 1 9 0;
#X connect 13 0 3 0;
#X restore 341 230 pd makebelnote;
#X obj 380 184 bng 15 250 50 0 empty empty empty 17 7 0 10 -262144
-1 -1;
#N canvas 1002 481 501 471 makebelnote 0;
#X obj 21 15 inlet;
#X obj 85 442 outlet;
#X obj 85 414 pack f f;
#X floatatom 55 229 5 0 0 0 - - -;
#X obj 54 162 bng 15 250 50 0 empty empty empty 17 7 0 10 -262144 -1
-1;
#X obj 54 184 random 7;
#X text 78 246 note;
#X obj 59 267 m_mixolydian 48;
#X obj 196 240 / 100;
#X obj 196 197 random 15;
#X obj 196 219 + 85;
#X obj 196 262 * 127;
#X obj 143 122 t b b;
#X obj 55 208 tabread \$0-cluster2;
#X connect 0 0 12 0;
#X connect 2 0 1 0;
#X connect 3 0 7 0;
#X connect 4 0 5 0;
#X connect 5 0 13 0;
#X connect 7 0 2 0;
#X connect 8 0 11 0;
#X connect 9 0 10 0;
#X connect 10 0 8 0;
#X connect 11 0 2 1;
#X connect 12 0 5 0;
#X connect 12 1 9 0;
#X connect 13 0 3 0;
#X restore 438 232 pd makebelnote;
#X obj 477 186 bng 15 250 50 0 empty empty empty 17 7 0 10 -262144
-1 -1;
#X obj 605 14 loadbang;
#X msg 605 34 0 -7 -6 -2 -1 3 -9;
#X obj 608 74 table \$0-cluster2 7;
#X obj 605 53 s \$0-cluster2;
#N canvas 852 386 450 300 counter 0;
#X obj 28 19 inlet;
#X obj 98 73 + 1;
#X floatatom 45 97 5 0 0 0 - - -;
#X msg 95 119 set \$1;
#X obj 95 96 % 4;
#X obj 33 168 sel 0 1 2 3;
#X obj 22 245 outlet;
#X obj 58 242 outlet;
#X obj 102 239 outlet;
#X obj 147 238 outlet;
#X connect 0 0 2 0;
#X connect 1 0 4 0;
#X connect 2 0 1 0;
#X connect 2 0 5 0;
#X connect 3 0 2 0;
#X connect 4 0 3 0;
#X connect 5 0 6 0;
#X connect 5 1 7 0;
#X connect 5 2 8 0;
#X connect 5 3 9 0;
#X restore 282 55 pd counter;
#X obj 388 386 loadbang;
#X obj 458 383 inlet;
#X obj 228 259 bellsynth;
#X obj 344 267 bellsynth;
#X obj 441 269 bellsynth;
#X msg 388 408 95;
#X connect 0 0 2 0;
#X connect 1 0 0 0;
#X connect 2 0 5 0;
#X connect 2 1 5 1;
#X connect 5 0 3 0;
#X connect 5 1 4 0;
#X connect 6 0 18 0;
#X connect 8 0 21 0;
#X connect 9 0 8 0;
#X connect 10 0 22 0;
#X connect 11 0 10 0;
#X connect 12 0 23 0;
#X connect 13 0 12 0;
#X connect 14 0 15 0;
#X connect 15 0 17 0;
#X connect 18 0 1 0;
#X connect 18 1 9 0;
#X connect 18 2 11 0;
#X connect 18 3 13 0;
#X connect 19 0 24 0;
#X connect 20 0 5 2;
#X connect 21 0 5 0;
#X connect 21 1 5 1;
#X connect 22 0 5 0;
#X connect 22 1 5 1;
#X connect 23 0 5 0;
#X connect 23 1 5 1;
#X connect 24 0 5 2;
#X restore 149 246 pd clusters2;
#X obj 304 169 r cymbalSwitch;
#X obj 140 173 r clusterSwitch;
#N canvas 93 395 450 300 reverb 0;
#X obj 48 24 inlet~;
#X obj 47 206 outlet~;
#X obj 132 33 loadbang;
#X obj 46 117 e_reverb \$0-reverbBus;
#X obj 106 207 outlet~;
#X msg 132 54 amp 80 \, hall 85 \, freq 6000 \, damp 60 \, dry 0;
#X connect 0 0 3 0;
#X connect 2 0 5 0;
#X connect 3 0 1 0;
#X connect 3 1 4 0;
#X connect 5 0 3 1;
#X restore 99 325 pd reverb;
#N canvas 760 22 763 938 snowslide 0;
#X obj 107 34 inlet;
#X obj 129 813 outlet~;
#X obj 179 812 outlet~;
#X obj 116 203 bng 15 250 50 0 empty empty empty 17 7 0 10 -262144
-1 -1;
#X obj 116 268 list prepend playdiv;
#X obj 107 54 t b;
#X text 107 13 note;
#X text 290 717 volume;
#X obj 293 734 inlet;
#X obj 143 758 g_vol2;
#X obj 294 763 / 100;
#X obj 123 628 *~;
#N canvas 227 330 516 558 env_perc_long 0;
#X obj 198 434 outlet~;
#X obj 13 16 inlet;
#X obj 196 327 / 127;
#X obj 196 366 t a a;
#X obj 157 260 * 127;
#X obj 117 259 t b a;
#X msg 116 280 60;
#X obj 349 21 inlet;
#X text 340 43 volume (0-1);
#X text 59 15 trigger - start envelope;
#X msg 118 153 1;
#X obj 118 131 t b;
#X obj 133 175 *;
#X obj 159 157 loadbang;
#X msg 159 176 1;
#X text 226 160 handle the volume scaling.;
#X text 249 287 setup a midi note (on then off);
#X text 325 355 calculate and send the env;
#X text 41 515 percussive envelope generator - cpm 2012;
#X obj 120 299 makenote 60 2000;
#X obj 435 20 inlet;
#X text 434 44 duration;
#X obj 198 411 c_adsr 1 300 2000 0 2000;
#X text 76 39 handle negative input to close env;
#X connect 1 0 11 0;
#X connect 2 0 3 0;
#X connect 3 0 22 0;
#X connect 3 1 22 1;
#X connect 4 0 19 1;
#X connect 5 0 6 0;
#X connect 5 1 4 0;
#X connect 6 0 19 0;
#X connect 7 0 12 1;
#X connect 10 0 12 0;
#X connect 11 0 10 0;
#X connect 12 0 5 0;
#X connect 13 0 14 0;
#X connect 14 0 12 1;
#X connect 19 1 2 0;
#X connect 20 0 19 2;
#X connect 20 0 22 3;
#X connect 22 0 0 0;
#X restore 254 404 pd env_perc_long;
#X obj 305 174 unpack s f;
#X floatatom 342 205 10 0 0 0 - - -;
#X msg 257 291 info;
#X floatatom 394 261 5 0 0 0 - - -;
#X msg 252 207 fade 10;
#X obj 407 322 loadbang;
#X obj 129 657 volumeRandomise;
#X obj 233 720 loadbang;
#X msg 367 345 1000;
#X obj 116 289 list append 1;
#X floatatom 404 344 5 0 0 0 - - -;
#X obj 116 222 random 15;
#X obj 116 247 list prepend 15;
#X obj 392 235 / 15;
#X obj 392 294 - 300;
#X obj 126 682 e_pan;
#X floatatom 164 681 5 0 0 0 - - -;
#X obj 256 270 loadbang;
#X obj 239 813 * 1;
#X msg 233 742 97;
#X obj 116 360 s_looper \$0-snow2 snow-sliding-1.wav;
#X obj 254 167 loadbang;
#X msg 299 299 sr 44100;
#X connect 0 0 5 0;
#X connect 3 0 24 0;
#X connect 4 0 22 0;
#X connect 5 0 3 0;
#X connect 8 0 10 0;
#X connect 9 0 1 0;
#X connect 9 1 2 0;
#X connect 10 0 31 0;
#X connect 11 0 28 0;
#X connect 12 0 11 1;
#X connect 13 1 14 0;
#X connect 13 1 26 0;
#X connect 15 0 33 0;
#X connect 16 0 27 0;
#X connect 17 0 33 0;
#X connect 18 0 21 0;
#X connect 19 0 28 1;
#X connect 19 0 29 0;
#X connect 20 0 32 0;
#X connect 21 0 12 2;
#X connect 22 0 33 0;
#X connect 24 0 25 0;
#X connect 25 0 4 0;
#X connect 26 0 16 0;
#X connect 27 0 12 2;
#X connect 27 0 23 0;
#X connect 28 0 9 0;
#X connect 28 1 9 1;
#X connect 30 0 15 0;
#X connect 30 0 35 0;
#X connect 31 0 9 2;
#X connect 32 0 31 0;
#X connect 33 0 11 0;
#X connect 33 2 12 0;
#X connect 33 3 13 0;
#X connect 34 0 17 0;
#X connect 35 0 33 0;
#X restore 448 245 pd snowslide;
#X obj 465 163 r snowSwitch;
#N canvas 727 49 477 425 clustermetro 0;
#X obj 303 241 bng 15 250 50 0 empty empty empty 17 7 0 10 -262144
-1 -1;
#X obj 247 264 + 1;
#X obj 211 109 t b b b b;
#X obj 201 15 bng 15 250 50 0 empty empty empty 17 7 0 10 -262144 -1
-1;
#X floatatom 256 287 5 0 0 0 - - -;
#X obj 247 244 random 6;
#X obj 67 123 delay 1000;
#X obj 192 324 c_multimetro 16 200;
#X obj 192 298 tgl 15 0 empty empty empty 17 7 0 10 -262144 -1 -1 1
1;
#X obj 91 319 delay 10;
#X msg 149 325 stop;
#X floatatom 89 252 5 0 0 0 - - -;
#X obj 89 276 sel 15;
#X obj 83 299 bng 15 250 50 0 empty empty empty 17 7 0 10 -262144 -1
-1;
#X obj 102 297 t b;
#X msg 192 277 1;
#X obj 223 13 loadbang;
#X obj 192 346 outlet;
#X obj 157 14 inlet;
#N canvas 1012 38 445 814 createclusterrhythm 0;
#X obj 78 50 inlet;
#X obj 52 778 outlet;
#X obj 68 140 t b b b b b b b b;
#X obj 93 478 list append;
#X obj 92 500 list append;
#X obj 95 522 list append;
#X obj 96 544 list append;
#X obj 94 567 list append;
#X obj 95 592 list append;
#X obj 167 187 + 200;
#X obj 148 231 + 200;
#X obj 143 277 + 200;
#X obj 122 316 + 200;
#X obj 113 358 + 200;
#X obj 104 402 + 200;
#X obj 94 444 + 200;
#X obj 167 167 random 4000;
#X obj 148 211 random 4000;
#X obj 143 257 random 4000;
#X obj 122 296 random 4000;
#X obj 113 338 random 4000;
#X obj 104 382 random 4000;
#X obj 94 424 random 4000;
#X connect 0 0 2 0;
#X connect 2 1 22 0;
#X connect 2 2 21 0;
#X connect 2 3 20 0;
#X connect 2 4 19 0;
#X connect 2 5 18 0;
#X connect 2 6 17 0;
#X connect 2 7 16 0;
#X connect 3 0 4 0;
#X connect 4 0 5 0;
#X connect 5 0 6 0;
#X connect 6 0 7 0;
#X connect 7 0 8 0;
#X connect 8 0 1 0;
#X connect 9 0 8 1;
#X connect 10 0 7 1;
#X connect 11 0 6 1;
#X connect 12 0 5 1;
#X connect 13 0 4 1;
#X connect 14 0 3 1;
#X connect 15 0 3 0;
#X connect 16 0 9 0;
#X connect 17 0 10 0;
#X connect 18 0 11 0;
#X connect 19 0 12 0;
#X connect 20 0 13 0;
#X connect 21 0 14 0;
#X connect 22 0 15 0;
#X restore 303 262 pd createclusterrhythm;
#X obj 348 352 print rhythm:;
#X obj 46 124 bng 15 250 50 0 empty empty empty 17 7 0 10 -262144 -1
-1;
#X obj 345 321 spigot;
#X obj 374 293 tgl 15 0 empty empty empty 17 7 0 10 -262144 -1 -1 0
1;
#X text 40 73 timer for calculating new cycle;
#X text 329 235 creates the rhythm;
#X obj 66 97 random 20000;
#X connect 0 0 19 0;
#X connect 1 0 7 1;
#X connect 1 0 4 0;
#X connect 2 0 26 0;
#X connect 2 1 15 0;
#X connect 2 2 5 0;
#X connect 2 3 0 0;
#X connect 3 0 2 0;
#X connect 5 0 1 0;
#X connect 5 0 12 1;
#X connect 6 0 2 0;
#X connect 6 0 21 0;
#X connect 7 0 11 0;
#X connect 7 0 17 0;
#X connect 8 0 7 0;
#X connect 9 0 10 0;
#X connect 9 0 6 0;
#X connect 10 0 7 0;
#X connect 11 0 12 0;
#X connect 12 0 13 0;
#X connect 12 0 14 0;
#X connect 14 0 9 0;
#X connect 15 0 8 0;
#X connect 16 0 2 0;
#X connect 18 0 2 0;
#X connect 19 0 7 2;
#X connect 19 0 22 0;
#X connect 22 0 20 0;
#X connect 23 0 22 1;
#X connect 26 0 6 1;
#X restore 451 192 pd clustermetro;
#X obj 430 194 bng 15 250 50 0 empty empty empty 17 7 0 10 -262144
-1 -1;
#N canvas 326 601 450 300 sel01 0;
#X obj 122 3 inlet;
#X obj 247 31 sel 0;
#X msg 225 58 0;
#X msg 275 57 1;
#X obj 49 133 spigot;
#X obj 240 5 inlet;
#X obj 47 203 outlet;
#X obj 165 105 tgl 15 0 empty empty empty 17 7 0 10 -262144 -1 -1 0
1;
#X connect 0 0 4 0;
#X connect 1 0 2 0;
#X connect 1 1 3 0;
#X connect 2 0 7 0;
#X connect 3 0 7 0;
#X connect 4 0 6 0;
#X connect 5 0 1 0;
#X connect 7 0 4 1;
#X coords 0 -1 1 1 85 25 1 100 100;
#X restore 449 215 pd sel01;
#N canvas 27 222 450 300 output 0;
#X obj 60 16 inlet~;
#X obj 60 52 hip~ 1;
#X obj 60 78 clip~ -1 1;
#X obj 131 16 inlet~;
#X obj 131 52 hip~ 1;
#X obj 131 78 clip~ -1 1;
#X obj 100 111 dac~;
#X connect 0 0 1 0;
#X connect 1 0 2 0;
#X connect 2 0 6 0;
#X connect 3 0 4 0;
#X connect 4 0 5 0;
#X connect 5 0 6 1;
#X restore 446 460 pd output;
#X obj 157 79 declare -path cpmlibs;
#X obj 155 46 declare -path fieldrecordings;
#X connect 3 0 4 0;
#X connect 4 1 11 0;
#X connect 5 0 10 0;
#X connect 6 0 10 0;
#X connect 7 0 10 0;
#X connect 8 0 10 0;
#X connect 9 0 10 0;
#X connect 11 0 12 0;
#X connect 12 0 13 0;
#X connect 13 0 34 0;
#X connect 13 1 34 1;
#X connect 14 0 13 2;
#X connect 15 0 13 1;
#X connect 16 0 17 0;
#X connect 16 0 18 0;
#X connect 18 0 25 0;
#X connect 19 0 28 0;
#X connect 19 0 34 0;
#X connect 19 1 34 1;
#X connect 20 0 21 0;
#X connect 20 0 22 0;
#X connect 22 0 19 0;
#X connect 25 0 28 0;
#X connect 25 0 34 0;
#X connect 25 1 34 1;
#X connect 26 0 22 1;
#X connect 27 0 18 1;
#X connect 28 0 34 0;
#X connect 28 1 34 1;
#X connect 29 0 28 0;
#X connect 29 0 34 0;
#X connect 29 1 34 1;
#X connect 30 0 33 1;
#X connect 31 0 32 0;
#X connect 31 0 33 0;
#X connect 33 0 29 0;
