#N canvas 0 22 450 300 10;
#N canvas 109 260 733 628 old 0;
#X obj 173 74 inlet;
#X obj 444 71 inlet;
#X obj 586 71 inlet;
#X text 443 53 touchMoved;
#X text 585 54 touchEnded;
#X text 170 55 touchBegan;
#X obj 588 522 outlet~;
#X obj 664 522 outlet~;
#N canvas 0 22 450 300 vol_scaler 0;
#X obj 40 20 inlet~;
#X obj 167 25 inlet~;
#X obj 34 255 outlet~;
#X obj 177 252 outlet~;
#X obj 45 118 *~;
#X obj 168 116 *~;
#X obj 255 27 inlet;
#X obj 266 244 outlet;
#X obj 283 79 loadbang;
#X msg 282 122 1;
#X connect 0 0 4 0;
#X connect 1 0 5 0;
#X connect 4 0 2 0;
#X connect 5 0 3 0;
#X connect 6 0 5 1;
#X connect 6 0 4 1;
#X connect 6 0 7 0;
#X connect 8 0 9 0;
#X connect 9 0 5 1;
#X connect 9 0 4 1;
#X restore 607 483 pd vol_scaler;
#X msg 681 458 0;
#X obj 593 95 bng 15 250 50 0 empty empty empty 17 7 0 10 -262144 -1
-1;
#X obj 450 163 line;
#X obj 450 143 list append 100;
#X msg 373 349 loop 1;
#X msg 586 117 stop;
#X obj 357 371 s_looper \$0-snowk snow-crushing-1.wav;
#X obj 445 93 * 0.07;
#X obj 447 117 + 0.1;
#X obj 587 371 s_looper \$0-snowWade snow-wade-medium.wav;
#X msg 486 71 100;
#X msg 597 350 loop 1;
#N canvas 496 345 450 300 chooseOutAtLoad 0;
#X obj 28 19 inlet;
#X floatatom 45 97 5 0 0 0 - - -;
#X msg 95 119 set \$1;
#X obj 22 245 outlet;
#X obj 58 242 outlet;
#X obj 115 38 loadbang;
#X obj 185 52 bng 15 250 50 0 empty empty empty 17 7 0 10 -262144 -1
-1;
#X obj 118 73 random 3;
#X obj 33 168 sel 0 1 2;
#X obj 102 245 outlet;
#X obj 284 2 inlet;
#X connect 0 0 1 0;
#X connect 1 0 8 0;
#X connect 2 0 1 0;
#X connect 5 0 7 0;
#X connect 6 0 7 0;
#X connect 7 0 2 0;
#X connect 8 0 3 0;
#X connect 8 1 4 0;
#X connect 8 2 9 0;
#X connect 10 0 6 0;
#X restore 545 291 pd chooseOutAtLoad;
#X obj 842 370 s_looper \$0-snowSlide snow-sliding-1.wav;
#X msg 855 349 loop 1;
#X obj 313 78 inlet;
#X text 308 52 next slice to play;
#X obj 707 83 inlet;
#X text 699 58 choose new snow sound;
#X obj 707 120 t b;
#X obj 173 99 t b;
#X connect 0 0 29 0;
#X connect 1 0 16 0;
#X connect 2 0 14 0;
#X connect 2 0 10 0;
#X connect 8 0 6 0;
#X connect 8 1 7 0;
#X connect 9 0 8 2;
#X connect 11 0 8 2;
#X connect 12 0 11 0;
#X connect 13 0 15 0;
#X connect 14 0 15 0;
#X connect 14 0 18 0;
#X connect 14 0 22 0;
#X connect 15 0 8 0;
#X connect 15 1 8 1;
#X connect 16 0 17 0;
#X connect 17 0 12 0;
#X connect 18 0 8 0;
#X connect 18 1 8 1;
#X connect 19 0 16 0;
#X connect 20 0 18 0;
#X connect 21 0 13 0;
#X connect 21 1 20 0;
#X connect 21 2 23 0;
#X connect 22 0 8 0;
#X connect 22 1 8 1;
#X connect 23 0 22 0;
#X connect 26 0 28 0;
#X connect 28 0 21 1;
#X connect 29 0 21 0;
#X connect 29 0 9 0;
#X restore 54 33 pd old;
#N canvas 924 167 845 649 old 0;
#X obj 262 60 inlet;
#X text 259 41 touchBegan;
#X obj 256 312 list prepend playdiv;
#X obj 255 248 bng 15 250 50 0 empty empty empty 17 7 0 10 -262144
-1 -1;
#N canvas 1144 170 516 558 env_perc 0;
#X obj 198 412 outlet~;
#X obj 13 16 inlet;
#X obj 196 327 / 127;
#X obj 196 366 t a a;
#X obj 157 260 * 127;
#X msg 116 280 60;
#X obj 116 301 makenote 60 200;
#X obj 349 21 inlet;
#X text 340 43 volume (0-1);
#X text 59 15 trigger - start envelope;
#X msg 16 102 1;
#X obj 31 124 *;
#X obj 57 106 loadbang;
#X msg 57 125 1;
#X text 6 53 handle the volume scaling.;
#X text 249 287 setup a midi note (on then off);
#X text 325 355 calculate and send the env;
#X text 41 515 percussive envelope generator - cpm 2012;
#X obj 448 23 inlet;
#X text 214 222 calculate a changing length;
#X obj 16 80 t b b;
#X obj 117 209 t b a b;
#X obj 198 272 + 50;
#X obj 198 389 c_adsr 1 20 200 100 400;
#X floatatom 305 265 5 0 0 0 - - -;
#X obj 199 248 random 250;
#X connect 1 0 20 0;
#X connect 2 0 3 0;
#X connect 3 0 23 0;
#X connect 3 1 23 1;
#X connect 4 0 6 1;
#X connect 5 0 6 0;
#X connect 6 1 2 0;
#X connect 7 0 11 1;
#X connect 10 0 11 0;
#X connect 11 0 21 0;
#X connect 12 0 13 0;
#X connect 13 0 11 1;
#X connect 18 0 22 1;
#X connect 20 0 10 0;
#X connect 21 0 5 0;
#X connect 21 1 4 0;
#X connect 21 2 25 0;
#X connect 22 0 6 2;
#X connect 22 0 24 0;
#X connect 23 0 0 0;
#X connect 25 0 22 0;
#X restore 434 353 pd env_perc;
#X obj 256 290 list prepend 100;
#X obj 256 332 s_looper \$0-snowStep snowsteps-short-mono.wav;
#X msg 43 112 sr 44100;
#X obj 43 89 loadbang;
#X obj 405 70 inlet;
#X obj 255 269 0;
#X text 400 44 next slice to play;
#X obj 339 255 +;
#X obj 318 224 f 100;
#X obj 336 180 t b b;
#X obj 320 153 t b b a;
#X obj 359 225 random 30;
#X obj 262 80 * 0.8;
#X obj 262 100 + 0.2;
#N canvas 721 417 450 300 zerotoone 0;
#X obj 160 13 inlet;
#X obj 161 245 outlet;
#X obj 160 49 moses 1;
#X obj 160 130 moses 0;
#X msg 199 84 1;
#X msg 160 156 0;
#X connect 0 0 2 0;
#X connect 2 0 3 0;
#X connect 2 1 4 0;
#X connect 3 0 5 0;
#X connect 3 1 1 0;
#X connect 4 0 3 0;
#X connect 5 0 1 0;
#X restore 404 99 pd zerotoone;
#X connect 0 0 17 0;
#X connect 2 0 6 0;
#X connect 3 0 10 0;
#X connect 5 0 2 0;
#X connect 6 2 4 0;
#X connect 7 0 6 0;
#X connect 8 0 7 0;
#X connect 9 0 10 1;
#X connect 9 0 19 0;
#X connect 10 0 5 0;
#X connect 12 0 5 1;
#X connect 13 0 12 0;
#X connect 14 0 13 0;
#X connect 14 1 16 0;
#X connect 15 0 3 0;
#X connect 15 1 14 0;
#X connect 15 2 4 1;
#X connect 16 0 12 1;
#X connect 17 0 18 0;
#X connect 18 0 15 0;
#X restore 121 35 pd old;
